<svg width="30.000000" height="30.000000" viewBox="0 0 30 30" fill="none" xmlns="http://www.w3.org/2000/svg" xmlns:xlink="http://www.w3.org/1999/xlink">
	<desc>
			Created with Pixso.
	</desc>
	<defs/>
	<rect id="Frame 7" width="30.000000" height="30.000000" fill="#FFFFFF" fill-opacity="0"/>
	<path id="Vector" d="M6.75 6.75C6.94 6.55 7.21 6.43 7.5 6.43C7.78 6.43 8.05 6.55 8.25 6.75L23.25 21.75C23.44 21.94 23.56 22.21 23.56 22.5C23.56 22.78 23.44 23.05 23.25 23.25C23.05 23.44 22.78 23.56 22.5 23.56C22.21 23.56 21.94 23.44 21.75 23.25L6.75 8.25C6.55 8.05 6.43 7.78 6.43 7.5C6.43 7.21 6.55 6.94 6.75 6.75Z" fill="#2C2D35" fill-opacity="1.000000" fill-rule="evenodd"/>
	<path id="Vector" d="M23.25 6.75C23.44 6.94 23.56 7.21 23.56 7.5C23.56 7.78 23.44 8.05 23.25 8.25L8.25 23.25C8.05 23.44 7.78 23.56 7.5 23.56C7.21 23.56 6.94 23.44 6.75 23.25C6.55 23.05 6.43 22.78 6.43 22.5C6.43 22.21 6.55 21.94 6.75 21.75L21.75 6.75C21.94 6.55 22.21 6.43 22.5 6.43C22.78 6.43 23.05 6.55 23.25 6.75Z" fill="#2C2D35" fill-opacity="1.000000" fill-rule="evenodd"/>
</svg>
